<svg xmlns:dc="http://purl.org/dc/elements/1.1/" xmlns:cc="http://creativecommons.org/ns#" xmlns:rdf="http://www.w3.org/1999/02/22-rdf-syntax-ns#" xmlns:svg="http://www.w3.org/2000/svg" xmlns="http://www.w3.org/2000/svg" xmlns:xlink="http://www.w3.org/1999/xlink" id="svg612559" viewBox="0 0 1024 768" height="768px" width="1024px" version="1.1">
  <metadata id="metadata612565">
    <rdf:rdf>
      <cc:work rdf:about="">
        <dc:format>image/svg+xml</dc:format>
        <dc:type rdf:resource="http://purl.org/dc/dcmitype/StillImage"></dc:type>
      </cc:work>
    </rdf:rdf>
  </metadata>
  <defs id="defs612563"></defs>
  <linearGradient spreadMethod="pad" y2="30%" x2="-10%" y1="120%" x1="30%" id="3d_gradient2-logo-907b7289-9d50-4325-b323-0e11a93490ee">
    <stop id="stop612540" stop-opacity="1" stop-color="#ffffff" offset="0%"></stop>
    <stop id="stop612542" stop-opacity="1" stop-color="#000000" offset="100%"></stop>
  </linearGradient>
  <linearGradient gradientTransform="rotate(-30)" spreadMethod="pad" y2="30%" x2="-10%" y1="120%" x1="30%" id="3d_gradient3-logo-907b7289-9d50-4325-b323-0e11a93490ee">
    <stop id="stop612545" stop-opacity="1" stop-color="#ffffff" offset="0%"></stop>
    <stop id="stop612547" stop-opacity="1" stop-color="#cccccc" offset="50%"></stop>
    <stop id="stop612549" stop-opacity="1" stop-color="#000000" offset="100%"></stop>
  </linearGradient>
  <g id="logo-group">
    <image xlink:href="" id="container" x="272" y="144" width="480" height="480" style="display: none;" transform="translate(0 0)"></image>
    <g id="logo-center" transform="translate(0 0)">
      <image xlink:href="" id="icon_container" style="display: none;" x="0" y="0"></image>
      <g id="slogan" style="font-style:normal;font-weight:400;font-size:32px;line-height:1;font-family:Orienta;font-variant-ligatures:none;text-align:center;text-anchor:middle" transform="translate(0 0)">
        <path id="path612567" style="font-style:normal;font-weight:400;font-size:32px;line-height:1;font-family:Orienta;font-variant-ligatures:none;text-align:center;text-anchor:middle" d="m 367.633,-22.4 v 2.496 h -5.888 V 0 h -3.072 v -19.904 h -5.888 V -22.4 Z" stroke-width="0" stroke-linejoin="miter" stroke-miterlimit="2" fill="#44d9f3" stroke="#44d9f3" transform="translate(-1.1368683772161603e-13 368.9092) translate(368.74344500000007 57.00800000000001) scale(0.78) translate(-352.785 22.4)"></path>
        <path id="path612569" style="font-style:normal;font-weight:400;font-size:32px;line-height:1;font-family:Orienta;font-variant-ligatures:none;text-align:center;text-anchor:middle" d="m 376.3885,-14.944 q -2.688,0 -3.488,2.656 l -2.656,-0.896 q 1.28,-4.256 6.144,-4.256 3.36,0 4.832,1.696 1.504,1.664 1.504,5.472 v 7.552 q 0,0.512 0.224,0.704 0.256,0.16 0.608,0.16 0.256,0 0.544,-0.064 0.288,-0.096 0.544,-0.224 l 0.512,1.984 q -0.512,0.256 -1.12,0.448 -0.608,0.192 -1.344,0.192 -1.152,0 -1.952,-0.544 -0.768,-0.576 -0.928,-2.176 -0.48,0.512 -1.088,1.024 -0.608,0.48 -1.344,0.864 -0.704,0.384 -1.536,0.608 -0.8,0.224 -1.696,0.224 -0.96,0 -1.824,-0.384 -0.832,-0.352 -1.44,-0.992 -0.608,-0.64 -0.96,-1.504 -0.352,-0.896 -0.352,-1.92 0,-2.624 1.76,-4.096 1.792,-1.472 4.928,-1.472 0.864,0 1.728,0.128 0.864,0.128 1.664,0.384 v -2.016 q 0,-1.664 -0.864,-2.592 -0.864,-0.96 -2.4,-0.96 z m -1.312,12.928 q 1.216,0 2.368,-0.576 1.184,-0.608 2.208,-1.632 v -3.104 q -0.672,-0.224 -1.44,-0.352 -0.768,-0.128 -1.504,-0.128 -0.8,0 -1.536,0.16 -0.736,0.16 -1.312,0.544 -0.544,0.384 -0.896,1.024 -0.32,0.608 -0.32,1.504 0,1.056 0.672,1.824 0.672,0.736 1.76,0.736 z" stroke-width="0" stroke-linejoin="miter" stroke-miterlimit="2" fill="#44d9f3" stroke="#44d9f3" transform="translate(-1.1368683772161603e-13 368.9092) translate(384.177695 60.8768) scale(0.78) translate(-369.5725 17.44)"></path>
        <path id="path612571" style="font-style:normal;font-weight:400;font-size:32px;line-height:1;font-family:Orienta;font-variant-ligatures:none;text-align:center;text-anchor:middle" d="m 392.9455,-7.616 -0.736,0.8 V 0 h -3.072 v -24 h 3.072 v 13.504 l 5.792,-6.464 h 3.36 l -6.656,7.36 7.296,9.6 h -3.36 z" stroke-width="0" stroke-linejoin="miter" stroke-miterlimit="2" fill="#44d9f3" stroke="#44d9f3" transform="translate(-1.1368683772161603e-13 368.9092) translate(401.77839500000005 55.760000000000005) scale(0.78) translate(-389.1375 24)"></path>
        <path id="path612573" style="font-style:normal;font-weight:400;font-size:32px;line-height:1;font-family:Orienta;font-variant-ligatures:none;text-align:center;text-anchor:middle" d="m 412.801,-2.016 q 1.632,0 2.816,-0.608 1.216,-0.64 1.952,-1.344 l 1.376,1.664 q -0.992,1.12 -2.592,1.952 -1.6,0.832 -3.648,0.832 -1.696,0 -3.136,-0.544 -1.44,-0.576 -2.496,-1.696 -1.024,-1.152 -1.632,-2.816 -0.576,-1.696 -0.576,-3.904 0,-2.208 0.576,-3.872 0.576,-1.696 1.6,-2.816 1.024,-1.152 2.4,-1.696 1.408,-0.576 3.04,-0.576 1.504,0 2.752,0.48 1.28,0.448 2.176,1.408 0.896,0.96 1.376,2.4 0.512,1.408 0.512,3.328 v 2.24 h -11.2 q 0.192,2.848 1.472,4.224 1.312,1.344 3.232,1.344 z m -0.288,-12.928 q -1.728,0 -2.944,1.28 -1.184,1.248 -1.44,3.84 h 8.128 q 0,-2.464 -0.992,-3.776 -0.96,-1.344 -2.752,-1.344 z" stroke-width="0" stroke-linejoin="miter" stroke-miterlimit="2" fill="#44d9f3" stroke="#44d9f3" transform="translate(-1.1368683772161603e-13 368.9092) translate(416.38584500000013 60.8768) scale(0.78) translate(-404.865 17.44)"></path>
        <path id="path612575" style="font-style:normal;font-weight:400;font-size:32px;line-height:1;font-family:Orienta;font-variant-ligatures:none;text-align:center;text-anchor:middle" d="m 436.4595,0 h -3.072 v -16.96 h 3.072 z m -3.488,-22.304 q 0,-1.024 0.544,-1.504 0.576,-0.512 1.408,-0.512 0.864,0 1.408,0.512 0.576,0.48 0.576,1.504 0,1.024 -0.576,1.536 -0.544,0.48 -1.408,0.48 -0.832,0 -1.408,-0.48 -0.544,-0.512 -0.544,-1.536 z" stroke-width="0" stroke-linejoin="miter" stroke-miterlimit="2" fill="#44d9f3" stroke="#44d9f3" transform="translate(-1.1368683772161603e-13 368.9092) translate(440.6489150000001 55.510400000000004) scale(0.78) translate(-432.9715 24.32)"></path>
        <path id="path612577" style="font-style:normal;font-weight:400;font-size:32px;line-height:1;font-family:Orienta;font-variant-ligatures:none;text-align:center;text-anchor:middle" d="m 441.4475,-16.96 h 2.432 v -3.52 l 2.432,-0.64 h 0.64 v 4.16 h 4.48 v 2.24 h -4.48 v 11.072 q 0,1.536 1.504,1.536 0.992,0 2.464,-0.896 l 0.832,1.92 q -0.96,0.736 -2.176,1.152 -1.184,0.416 -2.24,0.416 -1.696,0 -2.592,-1.12 -0.864,-1.152 -0.864,-3.328 V -14.72 h -2.432 z" stroke-width="0" stroke-linejoin="miter" stroke-miterlimit="2" fill="#44d9f3" stroke="#44d9f3" transform="translate(-1.1368683772161603e-13 368.9092) translate(449.60019500000016 58.0064) scale(0.78) translate(-441.4475 21.12)"></path>
        <path id="path612579" style="font-style:normal;font-weight:400;font-size:32px;line-height:1;font-family:Orienta;font-variant-ligatures:none;text-align:center;text-anchor:middle" d="m 463.24,-8.48 q 0,-2.208 0.576,-3.872 0.608,-1.696 1.632,-2.816 1.024,-1.152 2.432,-1.696 1.44,-0.576 3.072,-0.576 1.632,0 3.04,0.576 1.44,0.544 2.464,1.696 1.056,1.12 1.632,2.816 0.608,1.664 0.608,3.872 0,2.208 -0.608,3.904 -0.576,1.664 -1.632,2.816 -1.024,1.12 -2.464,1.696 -1.408,0.544 -3.04,0.544 -1.632,0 -3.072,-0.544 -1.408,-0.576 -2.432,-1.696 -1.024,-1.152 -1.632,-2.816 -0.576,-1.696 -0.576,-3.904 z m 3.2,0 q 0,3.296 1.248,4.896 1.28,1.568 3.264,1.568 2.016,0 3.264,-1.568 1.28,-1.6 1.28,-4.896 0,-3.296 -1.28,-4.864 -1.248,-1.6 -3.264,-1.6 -1.984,0 -3.264,1.6 -1.248,1.568 -1.248,4.864 z" stroke-width="0" stroke-linejoin="miter" stroke-miterlimit="2" fill="#44d9f3" stroke="#44d9f3" transform="translate(-1.1368683772161603e-13 368.9092) translate(468.9383450000002 60.8768) scale(0.78) translate(-463.24 17.44)"></path>
        <path id="path612581" style="font-style:normal;font-weight:400;font-size:32px;line-height:1;font-family:Orienta;font-variant-ligatures:none;text-align:center;text-anchor:middle" d="m 497.2895,-2.72 q 0,0.512 0.224,0.704 0.256,0.16 0.608,0.16 0.256,0 0.544,-0.064 0.288,-0.096 0.544,-0.224 l 0.512,1.984 q -0.512,0.256 -1.12,0.448 -0.608,0.192 -1.344,0.192 -1.12,0 -1.888,-0.512 -0.768,-0.512 -0.96,-1.92 -0.992,0.96 -2.432,1.696 -1.408,0.736 -3.328,0.736 -2.528,0 -3.68,-1.504 -1.152,-1.536 -1.152,-4.448 V -16.96 h 3.072 v 11.52 q 0,1.728 0.608,2.592 0.608,0.832 2.048,0.832 1.408,0 2.56,-0.512 1.152,-0.512 2.112,-1.376 V -16.96 h 3.072 z" stroke-width="0" stroke-linejoin="miter" stroke-miterlimit="2" fill="#44d9f3" stroke="#44d9f3" transform="translate(-1.1368683772161603e-13 368.9092) translate(487.3287950000002 61.2512) scale(0.78) translate(-483.8175 16.96)"></path>
        <path id="path612583" style="font-style:normal;font-weight:400;font-size:32px;line-height:1;font-family:Orienta;font-variant-ligatures:none;text-align:center;text-anchor:middle" d="m 502.4475,-16.96 h 2.432 v -3.52 l 2.432,-0.64 h 0.64 v 4.16 h 4.48 v 2.24 h -4.48 v 11.072 q 0,1.536 1.504,1.536 0.992,0 2.464,-0.896 l 0.832,1.92 q -0.96,0.736 -2.176,1.152 -1.184,0.416 -2.24,0.416 -1.696,0 -2.592,-1.12 -0.864,-1.152 -0.864,-3.328 V -14.72 h -2.432 z" stroke-width="0" stroke-linejoin="miter" stroke-miterlimit="2" fill="#44d9f3" stroke="#44d9f3" transform="translate(-1.1368683772161603e-13 368.9092) translate(504.2001950000002 58.0064) scale(0.78) translate(-502.4475 21.12)"></path>
        <path id="path612585" style="font-style:normal;font-weight:400;font-size:32px;line-height:1;font-family:Orienta;font-variant-ligatures:none;text-align:center;text-anchor:middle" d="m 524.24,-8.48 q 0,-2.208 0.576,-3.872 0.608,-1.696 1.632,-2.816 1.024,-1.152 2.432,-1.696 1.44,-0.576 3.072,-0.576 1.632,0 3.04,0.576 1.44,0.544 2.464,1.696 1.056,1.12 1.632,2.816 0.608,1.664 0.608,3.872 0,2.208 -0.608,3.904 -0.576,1.664 -1.632,2.816 -1.024,1.12 -2.464,1.696 -1.408,0.544 -3.04,0.544 -1.632,0 -3.072,-0.544 -1.408,-0.576 -2.432,-1.696 -1.024,-1.152 -1.632,-2.816 -0.576,-1.696 -0.576,-3.904 z m 3.2,0 q 0,3.296 1.248,4.896 1.28,1.568 3.264,1.568 2.016,0 3.264,-1.568 1.28,-1.6 1.28,-4.896 0,-3.296 -1.28,-4.864 -1.248,-1.6 -3.264,-1.6 -1.984,0 -3.264,1.6 -1.248,1.568 -1.248,4.864 z" stroke-width="0" stroke-linejoin="miter" stroke-miterlimit="2" fill="#44d9f3" stroke="#44d9f3" transform="translate(-1.1368683772161603e-13 368.9092) translate(523.5383450000003 60.8768) scale(0.78) translate(-524.24 17.44)"></path>
        <path id="path612587" style="font-style:normal;font-weight:400;font-size:32px;line-height:1;font-family:Orienta;font-variant-ligatures:none;text-align:center;text-anchor:middle" d="m 543.6975,-16.96 h 2.432 v -1.952 q 0,-3.008 1.28,-4.288 1.312,-1.28 3.776,-1.28 1.632,0 2.72,0.672 1.12,0.672 1.824,2.56 l -2.56,0.864 q -0.288,-0.768 -0.736,-1.184 -0.448,-0.416 -1.28,-0.416 -0.96,0 -1.472,0.672 -0.48,0.64 -0.48,2.08 v 2.272 h 4.16 v 2.24 h -4.16 V 0 h -3.072 v -14.72 h -2.432 z" stroke-width="0" stroke-linejoin="miter" stroke-miterlimit="2" fill="#44d9f3" stroke="#44d9f3" transform="translate(-1.1368683772161603e-13 368.9092) translate(541.0551950000003 55.3856) scale(0.78) translate(-543.6975 24.48)"></path>
        <path id="path612589" style="font-style:normal;font-weight:400;font-size:32px;line-height:1;font-family:Orienta;font-variant-ligatures:none;text-align:center;text-anchor:middle" d="m 570.942,-15.104 q -1.216,0 -2.048,0.544 -0.832,0.544 -0.832,1.664 0,0.896 0.64,1.504 0.64,0.576 1.6,1.056 0.96,0.48 2.048,0.96 1.12,0.48 2.08,1.152 0.96,0.64 1.6,1.6 0.64,0.928 0.64,2.368 0,2.144 -1.568,3.456 -1.568,1.28 -4.352,1.28 -2.752,0 -4.224,-1.28 -1.44,-1.312 -1.984,-3.616 l 2.656,-0.896 q 0.16,1.056 0.512,1.728 0.384,0.672 0.896,1.056 0.512,0.384 1.12,0.544 0.608,0.128 1.248,0.128 1.088,0 1.92,-0.512 0.832,-0.544 0.832,-1.664 0,-0.832 -0.64,-1.376 -0.64,-0.544 -1.6,-1.024 -0.96,-0.48 -2.08,-0.96 -1.088,-0.512 -2.048,-1.216 -0.96,-0.704 -1.6,-1.696 -0.64,-1.024 -0.64,-2.528 0,-0.736 0.288,-1.536 0.288,-0.832 0.96,-1.504 0.704,-0.672 1.824,-1.12 1.152,-0.448 2.816,-0.448 2.208,0 3.648,0.992 1.472,0.96 2.112,3.264 l -2.656,0.896 q -0.352,-1.312 -1.152,-2.048 -0.8,-0.768 -2.016,-0.768 z" stroke-width="0" stroke-linejoin="miter" stroke-miterlimit="2" fill="#44d9f3" stroke="#44d9f3" transform="translate(-1.1368683772161603e-13 368.9092) translate(559.6539050000002 60.8768) scale(0.78) translate(-564.542 17.44)"></path>
        <path id="path612591" style="font-style:normal;font-weight:400;font-size:32px;line-height:1;font-family:Orienta;font-variant-ligatures:none;text-align:center;text-anchor:middle" d="m 588.4885,-2.016 q 1.632,0 2.816,-0.608 1.216,-0.64 1.952,-1.344 l 1.376,1.664 q -0.992,1.12 -2.592,1.952 -1.6,0.832 -3.648,0.832 -1.696,0 -3.136,-0.544 -1.44,-0.576 -2.496,-1.696 -1.024,-1.152 -1.632,-2.816 -0.576,-1.696 -0.576,-3.904 0,-2.208 0.576,-3.872 0.576,-1.696 1.6,-2.816 1.024,-1.152 2.4,-1.696 1.408,-0.576 3.04,-0.576 1.504,0 2.752,0.48 1.28,0.448 2.176,1.408 0.896,0.96 1.376,2.4 0.512,1.408 0.512,3.328 v 2.24 h -11.2 q 0.192,2.848 1.472,4.224 1.312,1.344 3.232,1.344 z m -0.288,-12.928 q -1.728,0 -2.944,1.28 -1.184,1.248 -1.44,3.84 h 8.128 q 0,-2.464 -0.992,-3.776 -0.96,-1.344 -2.752,-1.344 z" stroke-width="0" stroke-linejoin="miter" stroke-miterlimit="2" fill="#44d9f3" stroke="#44d9f3" transform="translate(-1.1368683772161603e-13 368.9092) translate(574.4820950000002 60.8768) scale(0.78) translate(-580.5525 17.44)"></path>
        <path id="path612593" style="font-style:normal;font-weight:400;font-size:32px;line-height:1;font-family:Orienta;font-variant-ligatures:none;text-align:center;text-anchor:middle" d="m 603.042,-16.96 0.16,2.08 q 0.992,-1.12 2.368,-1.792 1.376,-0.704 2.912,-0.768 l 0.16,2.304 -0.384,0.352 q -1.504,0.032 -2.72,0.544 -1.184,0.48 -2.016,1.344 V 0 h -3.072 v -16.96 z" stroke-width="0" stroke-linejoin="miter" stroke-miterlimit="2" fill="#44d9f3" stroke="#44d9f3" transform="translate(-1.1368683772161603e-13 368.9092) translate(592.3421450000003 60.8768) scale(0.78) translate(-600.45 17.44)"></path>
        <path id="path612595" style="font-style:normal;font-weight:400;font-size:32px;line-height:1;font-family:Orienta;font-variant-ligatures:none;text-align:center;text-anchor:middle" d="m 619.5295,0 h -4.032 l -5.44,-16.96 h 3.168 l 4.448,14.112 4.448,-14.112 h 2.848 z" stroke-width="0" stroke-linejoin="miter" stroke-miterlimit="2" fill="#44d9f3" stroke="#44d9f3" transform="translate(-1.1368683772161603e-13 368.9092) translate(602.1759950000003 61.2512) scale(0.78) translate(-610.0575 16.96)"></path>
        <path id="path612597" style="font-style:normal;font-weight:400;font-size:32px;line-height:1;font-family:Orienta;font-variant-ligatures:none;text-align:center;text-anchor:middle" d="m 632.3345,0 h -3.072 v -16.96 h 3.072 z m -3.488,-22.304 q 0,-1.024 0.544,-1.504 0.576,-0.512 1.408,-0.512 0.864,0 1.408,0.512 0.576,0.48 0.576,1.504 0,1.024 -0.576,1.536 -0.544,0.48 -1.408,0.48 -0.832,0 -1.408,-0.48 -0.544,-0.512 -0.544,-1.536 z" stroke-width="0" stroke-linejoin="miter" stroke-miterlimit="2" fill="#44d9f3" stroke="#44d9f3" transform="translate(-1.1368683772161603e-13 368.9092) translate(619.1714150000003 55.510400000000004) scale(0.78) translate(-628.8465 24.32)"></path>
        <path id="path612599" style="font-style:normal;font-weight:400;font-size:32px;line-height:1;font-family:Orienta;font-variant-ligatures:none;text-align:center;text-anchor:middle" d="m 648.8105,-12.288 q -0.736,-2.656 -3.264,-2.656 -1.984,0 -3.264,1.6 -1.28,1.568 -1.28,4.864 0,3.296 1.312,4.896 1.312,1.568 3.328,1.568 1.44,0 2.592,-0.608 1.152,-0.64 1.888,-1.344 l 1.376,1.664 q -0.992,1.12 -2.56,1.952 -1.568,0.832 -3.424,0.832 -1.696,0 -3.104,-0.544 -1.408,-0.576 -2.432,-1.696 -1.024,-1.152 -1.6,-2.816 -0.576,-1.696 -0.576,-3.904 0,-2.208 0.576,-3.872 0.608,-1.696 1.632,-2.816 1.024,-1.152 2.432,-1.696 1.408,-0.576 3.04,-0.576 2.176,0 3.712,0.992 1.568,0.96 2.272,3.264 z" stroke-width="0" stroke-linejoin="miter" stroke-miterlimit="2" fill="#44d9f3" stroke="#44d9f3" transform="translate(-1.1368683772161603e-13 368.9092) translate(628.4970950000002 60.8768) scale(0.78) translate(-637.8025 17.44)"></path>
        <path id="path612601" style="font-style:normal;font-weight:400;font-size:32px;line-height:1;font-family:Orienta;font-variant-ligatures:none;text-align:center;text-anchor:middle" d="m 662.6135,-2.016 q 1.632,0 2.816,-0.608 1.216,-0.64 1.952,-1.344 l 1.376,1.664 q -0.992,1.12 -2.592,1.952 -1.6,0.832 -3.648,0.832 -1.696,0 -3.136,-0.544 -1.44,-0.576 -2.496,-1.696 -1.024,-1.152 -1.632,-2.816 -0.576,-1.696 -0.576,-3.904 0,-2.208 0.576,-3.872 0.576,-1.696 1.6,-2.816 1.024,-1.152 2.4,-1.696 1.408,-0.576 3.04,-0.576 1.504,0 2.752,0.48 1.28,0.448 2.176,1.408 0.896,0.96 1.376,2.4 0.512,1.408 0.512,3.328 v 2.24 h -11.2 q 0.192,2.848 1.472,4.224 1.312,1.344 3.232,1.344 z m -0.288,-12.928 q -1.728,0 -2.944,1.28 -1.184,1.248 -1.44,3.84 h 8.128 q 0,-2.464 -0.992,-3.776 -0.96,-1.344 -2.752,-1.344 z" stroke-width="0" stroke-linejoin="miter" stroke-miterlimit="2" fill="#44d9f3" stroke="#44d9f3" transform="translate(-1.1368683772161603e-13 368.9092) translate(643.9995950000001 60.8768) scale(0.78) translate(-654.6775 17.44)"></path>
      </g>
      <g id="title" style="font-style:normal;font-weight:normal;font-size:72px;line-height:1;font-family:'Brandmark Sans 51';font-variant-ligatures:normal;text-align:center;text-anchor:middle" transform="translate(0 0)">
        <path id="path612604" style="font-style:normal;font-weight:normal;font-size:72px;line-height:1;font-family:'Brandmark Sans 51';font-variant-ligatures:normal;text-align:center;text-anchor:middle" d="m 379.78044,0 h 58.392 v -3.24 h -58.392 c -12.168,0 -21.96,-9.792 -21.96,-21.96 0,-12.168 9.792,-21.96 21.96,-21.96 7.056,0 13.32,3.312 17.352,8.496 l 2.592,-2.52 c -4.68,-5.832 -11.88,-9.576 -19.944,-9.576 -14.112,0 -25.56,11.448 -25.56,25.56 0,14.112 11.448,25.2 25.56,25.2 z m 29.592,-10.44 V -50.4 h -3.6 v 39.96 z" stroke-width="0" stroke-linejoin="miter" stroke-miterlimit="2" fill="#44d9f3" stroke="#44d9f3" transform="translate(0 303.1696) translate(258.8495733 21.066799999999994) scale(1.57) translate(-354.22044 50.76)"></path>
        <path id="path612606" style="font-style:normal;font-weight:normal;font-size:72px;line-height:1;font-family:'Brandmark Sans 51';font-variant-ligatures:normal;text-align:center;text-anchor:middle" d="m 456.43906,0 h 3.6 v -50.4 h -3.6 z" stroke-width="0" stroke-linejoin="miter" stroke-miterlimit="2" fill="#49c7f2" stroke="#49c7f2" transform="translate(0 303.1696) translate(419.3328067 21.631999999999998) scale(1.57) translate(-456.43906 50.4)"></path>
        <path id="path612608" style="font-style:normal;font-weight:normal;font-size:72px;line-height:1;font-family:'Brandmark Sans 51';font-variant-ligatures:normal;text-align:center;text-anchor:middle" d="m 527.59081,-7.632 c -0.648,-0.936 -1.224,-2.088 -1.872,-3.312 -3.96,4.752 -10.008,7.704 -16.704,7.704 -12.168,0 -21.96,-9.792 -21.96,-21.96 0,-12.168 9.792,-21.96 21.96,-21.96 6.696,0 12.672,2.952 16.704,7.704 0.504,-1.08 1.152,-2.232 1.8,-3.312 -4.608,-4.896 -11.232,-7.992 -18.504,-7.992 -14.112,0 -25.56,11.448 -25.56,25.56 0,14.112 11.448,25.56 25.56,25.56 7.344,0 13.896,-3.096 18.576,-7.992 z m 27.648,7.992 c 14.112,0 25.56,-11.448 25.56,-25.56 0,-14.112 -11.448,-25.56 -25.56,-25.56 -14.112,0 -25.56,11.448 -25.56,25.56 0,14.112 11.448,25.56 25.56,25.56 z m 0,-3.6 c -12.168,0 -21.96,-9.792 -21.96,-21.96 0,-12.168 9.792,-21.96 21.96,-21.96 12.168,0 21.96,9.792 21.96,21.96 0,12.168 -9.792,21.96 -21.96,21.96 z" stroke-width="0" stroke-linejoin="miter" stroke-miterlimit="2" fill="#4db6f1" stroke="#4db6f1" transform="translate(0 303.1696) translate(461.74753419999996 21.066799999999994) scale(1.57) translate(-483.45481 50.76)"></path>
        <path id="path612610" style="font-style:normal;font-weight:normal;font-size:72px;line-height:1;font-family:'Brandmark Sans 51';font-variant-ligatures:normal;text-align:center;text-anchor:middle" d="m 676.70506,-50.4 h -50.976 v 3.24 h 50.976 z m -18.36,14.4 h -3.6 V 0 h 3.6 z m -32.616,0 v 16.776 c 0,8.784 -7.128,15.912 -15.912,15.912 -8.64,0 -15.768,-7.128 -15.768,-15.912 V -50.4 h -3.6 v 31.176 c 0,10.8 8.712,19.512 19.368,19.512 10.8,0 19.512,-8.712 19.512,-19.512 V -36 Z" stroke-width="0" stroke-linejoin="miter" stroke-miterlimit="2" fill="#52a4f0" stroke="#52a4f0" transform="translate(0 303.1696) translate(629.7285067 21.631999999999998) scale(1.57) translate(-590.44906 50.4)"></path>
      </g>
      <image xlink:href="" id="icon" style="display: none;" x="0" y="0"></image>
    </g>
  </g>
</svg>